<svg xmlns="http://www.w3.org/2000/svg" width="960" height="440" viewBox="0 0 960 440" role="img" aria-label="async await sequential flow versus unfinished promises">
  <rect width="960" height="440" fill="#ffffff"/>
  <text x="40" y="42" fill="#111827" font-family="Segoe UI, Arial, sans-serif" font-size="24" font-weight="700">async / await: finish each step</text>
  <text x="40" y="72" fill="#4b5563" font-family="Segoe UI, Arial, sans-serif" font-size="15">Like a utility belt: each gadget is ready before the next is built</text>
  <!-- ordered path -->
  <rect x="40" y="110" width="150" height="70" rx="10" fill="#fff7ed" stroke="#ea580c" stroke-width="2.5"/>
  <text x="115" y="140" text-anchor="middle" fill="#9a3412" font-family="Segoe UI, Arial, sans-serif" font-size="13" font-weight="700">await step 1</text>
  <text x="115" y="162" text-anchor="middle" fill="#6b7280" font-family="Segoe UI, Arial, sans-serif" font-size="12">done</text>
  <path d="M200 145 H240" stroke="#111827" stroke-width="2.5"/>
  <polygon points="240,140 252,145 240,150" fill="#111827"/>
  <rect x="260" y="110" width="150" height="70" rx="10" fill="#fff7ed" stroke="#ea580c" stroke-width="2.5"/>
  <text x="335" y="140" text-anchor="middle" fill="#9a3412" font-family="Segoe UI, Arial, sans-serif" font-size="13" font-weight="700">await step 2</text>
  <text x="335" y="162" text-anchor="middle" fill="#6b7280" font-family="Segoe UI, Arial, sans-serif" font-size="12">done</text>
  <path d="M420 145 H460" stroke="#111827" stroke-width="2.5"/>
  <polygon points="460,140 472,145 460,150" fill="#111827"/>
  <rect x="480" y="110" width="150" height="70" rx="10" fill="#fff7ed" stroke="#ea580c" stroke-width="2.5"/>
  <text x="555" y="140" text-anchor="middle" fill="#9a3412" font-family="Segoe UI, Arial, sans-serif" font-size="13" font-weight="700">await step 3</text>
  <text x="555" y="162" text-anchor="middle" fill="#6b7280" font-family="Segoe UI, Arial, sans-serif" font-size="12">done</text>
  <path d="M640 145 H680" stroke="#16a34a" stroke-width="2.5"/>
  <polygon points="680,140 692,145 680,150" fill="#16a34a"/>
  <rect x="700" y="110" width="200" height="70" rx="10" fill="#f0fdf4" stroke="#16a34a" stroke-width="2.5"/>
  <text x="800" y="150" text-anchor="middle" fill="#166534" font-family="Segoe UI, Arial, sans-serif" font-size="16" font-weight="700">ready</text>
  <!-- without await -->
  <text x="40" y="240" fill="#b91c1c" font-family="Segoe UI, Arial, sans-serif" font-size="18" font-weight="700">Without await: you hold Promises, not finished values</text>
  <rect x="40" y="270" width="220" height="60" rx="10" fill="#fef2f2" stroke="#dc2626" stroke-width="2"/>
  <text x="150" y="305" text-anchor="middle" fill="#991b1b" font-family="Segoe UI, Arial, sans-serif" font-size="14">Promise&lt;step1&gt;</text>
  <rect x="300" y="270" width="220" height="60" rx="10" fill="#fef2f2" stroke="#dc2626" stroke-width="2"/>
  <text x="410" y="305" text-anchor="middle" fill="#991b1b" font-family="Segoe UI, Arial, sans-serif" font-size="14">Promise&lt;step2&gt;</text>
  <rect x="560" y="270" width="220" height="60" rx="10" fill="#fef2f2" stroke="#dc2626" stroke-width="2"/>
  <text x="670" y="305" text-anchor="middle" fill="#991b1b" font-family="Segoe UI, Arial, sans-serif" font-size="14">Promise&lt;step3&gt;</text>
  <text x="40" y="380" fill="#374151" font-family="Segoe UI, Arial, sans-serif" font-size="14">Rule: if a line uses await, its function must be marked async.</text>
</svg>
